<?xml version="1.0" encoding="utf-8"?>
<!-- Generator: Adobe Illustrator 23.0.0, SVG Export Plug-In . SVG Version: 6.00 Build 0)  -->
<svg version="1.1" id="Layer_1" xmlns="http://www.w3.org/2000/svg" xmlns:xlink="http://www.w3.org/1999/xlink" x="0px" y="0px"
	 viewBox="0 0 658 472" style="enable-background:new 0 0 658 472;" xml:space="preserve">
<style type="text/css">
	.st0{fill:#16120B;}
</style>
<g>
	<title>astronautas</title>
	<desc>Created with Sketch.</desc>
	<path class="st0" d="M130.4,418.6c1.2,1.6,1.4,3.1,0.7,4.5c-0.7,1.5-1.8,2.6-3.4,3.4c-4.1,1.9-8.7,3.6-13.9,5.1
		c-5.2,1.5-11.2,2.2-18.2,2.2c-8.6,0-16.8-1.9-24.8-5.5c-8-3.7-15-8.7-21-15c-6-6.3-10.8-13.8-14.4-22.3c-3.6-8.6-5.4-17.7-5.4-27.4
		v-0.3v-0.3c0-9.7,1.8-18.9,5.4-27.4c3.6-8.6,8.4-16,14.4-22.3c6-6.3,13-11.3,21-15c8-3.7,16.2-5.5,24.8-5.5
		c10.9,0,21.6,2.4,32.1,7.3c1,0.8,1.9,1.6,2.8,2.5c0.9,0.9,1,2.2,0.4,3.9l-10.5,19.3c-1,1.6-2.3,2.7-3.9,3.4
		c-1.7,0.7-3.3,0.5-4.8-0.4c-4.7-1.9-10-2.9-16-2.9c-4.7,0-9,1-13.1,2.9c-4.1,1.9-7.6,4.6-10.6,8c-3,3.4-5.4,7.4-7.1,12
		c-1.7,4.6-2.6,9.5-2.6,14.7c0,5.3,0.9,10.2,2.6,14.9c1.8,4.7,4.1,8.7,7.1,12c3,3.3,6.6,5.9,10.6,7.9c4.1,1.9,8.5,2.9,13.1,2.9
		c6,0,11.4-1,16-2.9c1.6-1,3.2-1.1,4.8-0.4c1.6,0.7,3,1.8,3.9,3.4L130.4,418.6z"/>
	<path class="st0" d="M192.5,229.5c1.4,1.6,2,3.4,2,5.5v189.6c0,1.9-0.7,3.6-2,5c-1.4,1.4-3.1,2-5.2,2h-20.1c-1.7,0-3.3-0.7-4.7-2
		c-1.4-1.4-2-3-2-5V235.1c0-2.1,0.7-4,2-5.5c1.4-1.6,2.9-2.3,4.7-2.3h20.1C189.4,227.2,191.2,228,192.5,229.5"/>
	<path class="st0" d="M344.2,319.4c4.9,6.2,8.7,13.1,11.4,20.6c2.7,7.5,4.1,15.3,4.1,23.5c0,9.7-1.9,18.9-5.5,27.4
		c-3.7,8.6-8.7,16-15.2,22.3c-6.4,6.3-14,11.3-22.6,15c-8.7,3.7-17.9,5.5-27.9,5.5c-8.6,0-16.8-1.9-24.8-5.5c-8-3.7-15-8.7-21-15
		c-6-6.3-10.8-13.8-14.4-22.3c-3.6-8.6-5.4-17.7-5.4-27.4c0-13.4,3.1-25.4,9.2-35.9c6.1-10.5,14-18.7,23.6-24.7
		c9.6-5.9,20.4-9.2,32.2-9.8c11.9-0.6,23.5,2.2,35,8.5c1.9,1,2.4,2.2,1.5,3.8l-11.1,20.1c-1,1.6-2.3,2.7-3.9,3.4
		c-1.7,0.7-3.3,0.5-4.8-0.4c-4.7-1.9-10-2.9-16-2.9c-4.9,0-9.3,1-13.4,2.9c-4.1,1.9-7.6,4.6-10.6,8c-3,3.4-5.4,7.4-7,12.1
		c-1.7,4.7-2.5,9.6-2.5,14.9c0,10.9,3.2,19.9,9.5,27c6.3,7.1,14.3,10.6,24.1,10.6c5.4,0,10.5-0.9,15.3-2.8c4.8-1.8,8.9-4.5,12.4-7.9
		c3.5-3.4,6.3-7.4,8.3-12c2-4.6,3.1-9.6,3.1-15c0-3.5-0.5-6.9-1.6-10.4c-1.1-3.4-2.4-6.5-3.9-9.2c-1.6-3.3-0.9-6.1,2-8.5l17.5-15.8
		C342.6,318.7,343.4,318.6,344.2,319.4"/>
	<path class="st0" d="M434.9,346.2c8.2,1.4,15.7,2.9,22.7,4.7s13.1,4.2,18.2,7.3c5.2,3.1,9.2,7.1,12.1,12c2.9,4.9,4.4,10.9,4.4,18.1
		c0,6.4-1.4,12.4-4.2,17.9c-2.8,5.5-6.8,10.3-12,14.1c-5.1,3.9-11.3,7-18.5,9.2c-7.2,2.2-15.2,3.4-23.9,3.4
		c-6.4,0-12.6-0.8-18.5-2.5c-5.9-1.7-11.4-4.1-16.3-7.3c-5-3.2-9.2-7.1-12.8-11.8c-3.6-4.7-6.4-9.9-8.3-15.8
		c-1.2-2.1-0.9-4.3,0.9-6.4c1.2-1.7,3-2.6,5.5-2.6h20.7c2.3,0,4.3,0.9,5.8,2.6c3.3,4.9,7.2,8.2,11.7,9.9c4.5,1.8,8.8,2.6,13.1,2.6
		c6.8,0,12.3-1,16.5-2.9c4.2-1.9,6.3-4.8,6.3-8.5c0-1.9-0.4-3.6-1.2-5.1c-0.8-1.5-2.2-2.8-4.2-3.9c-2-1.2-4.9-2.2-8.6-3.1
		c-3.7-0.9-8.4-1.8-14-2.8c-4.9-0.8-10.3-1.9-16.3-3.4c-6-1.5-11.7-3.6-16.9-6.6c-5.3-2.9-9.6-6.8-13.1-11.5
		c-3.5-4.8-5.3-10.8-5.3-18.2c0-5.2,1.2-10.4,3.5-15.6c2.3-5.2,5.7-9.8,10.2-13.9c4.5-4.1,10-7.4,16.5-9.9c6.5-2.5,14-3.8,22.6-3.8
		c13.4,0,24.9,3,34.4,8.9c9.5,5.9,16.4,14,20.7,24.1c0.6,2.3,0.2,4.4-1.2,6.1c-0.4,1-1.2,1.7-2.3,2.3c-1.2,0.6-2.3,0.9-3.5,0.9h-21
		c-1.2,0-2.3-0.3-3.4-0.9c-1.1-0.6-2.1-1.4-3.1-2.3c-1.6-2.3-4.3-4.2-8.2-5.7c-3.9-1.5-8.1-2.3-12.5-2.5c-3.9-0.2-7,0-9.3,0.6
		c-2.3,0.6-4.1,1.5-5.4,2.6c-1.3,1.2-2.1,2.5-2.5,3.9c-0.4,1.5-0.6,2.8-0.6,3.9c0,3.3,1.4,5.6,4.2,7
		C420.7,342.9,426.4,344.5,434.9,346.2"/>
	<path class="st0" d="M568.5,346.2c8.2,1.4,15.7,2.9,22.7,4.7c7,1.7,13.1,4.2,18.2,7.3c5.2,3.1,9.2,7.1,12.1,12
		c2.9,4.9,4.4,10.9,4.4,18.1c0,6.4-1.4,12.4-4.2,17.9c-2.8,5.5-6.8,10.3-12,14.1c-5.2,3.9-11.3,7-18.5,9.2
		c-7.2,2.2-15.2,3.4-23.9,3.4c-6.4,0-12.6-0.8-18.5-2.5c-5.9-1.7-11.4-4.1-16.3-7.3c-5-3.2-9.2-7.1-12.8-11.8
		c-3.6-4.7-6.4-9.9-8.3-15.8c-1.2-2.1-0.9-4.3,0.9-6.4c1.2-1.7,3-2.6,5.5-2.6h20.7c2.3,0,4.3,0.9,5.8,2.6c3.3,4.9,7.2,8.2,11.7,9.9
		c4.5,1.8,8.8,2.6,13.1,2.6c6.8,0,12.3-1,16.5-2.9c4.2-1.9,6.3-4.8,6.3-8.5c0-1.9-0.4-3.6-1.2-5.1c-0.8-1.5-2.2-2.8-4.2-3.9
		c-2-1.2-4.9-2.2-8.6-3.1c-3.7-0.9-8.4-1.8-14-2.8c-4.9-0.8-10.3-1.9-16.3-3.4c-6-1.5-11.7-3.6-16.9-6.6c-5.3-2.9-9.6-6.8-13.1-11.5
		c-3.5-4.8-5.3-10.8-5.3-18.2c0-5.2,1.2-10.4,3.5-15.6c2.3-5.2,5.7-9.8,10.2-13.9c4.5-4.1,10-7.4,16.5-9.9c6.5-2.5,14-3.8,22.6-3.8
		c13.4,0,24.9,3,34.4,8.9c9.5,5.9,16.4,14,20.7,24.1c0.6,2.3,0.2,4.4-1.2,6.1c-0.4,1-1.2,1.7-2.3,2.3c-1.2,0.6-2.3,0.9-3.5,0.9h-21
		c-1.2,0-2.3-0.3-3.4-0.9c-1.1-0.6-2.1-1.4-3.1-2.3c-1.6-2.3-4.3-4.2-8.2-5.7c-3.9-1.5-8.1-2.3-12.5-2.5c-3.9-0.2-7,0-9.3,0.6
		c-2.3,0.6-4.1,1.5-5.4,2.6c-1.3,1.2-2.1,2.5-2.5,3.9c-0.4,1.5-0.6,2.8-0.6,3.9c0,3.3,1.4,5.6,4.2,7
		C554.3,342.9,560,344.5,568.5,346.2"/>
	<path class="st0" d="M248.9,61.7h28.9c7.5,0,13.6,6.1,13.6,13.6v105.8h-28.9c-7.5,0-13.6-6.1-13.6-13.6V61.7z"/>
	<path class="st0" d="M364.6,47.1h28.9c7.5,0,13.6,6.1,13.6,13.6v105.8h-28.9c-7.5,0-13.6-6.1-13.6-13.6V47.1z"/>
	<path class="st0" d="M204.7,61.7h28.9v91.2c0,7.5-6.1,13.6-13.6,13.6h-28.9V75.3C191.1,67.7,197.2,61.7,204.7,61.7"/>
	<path class="st0" d="M320.4,47.1h28.9v120.4c0,7.5-6.1,13.6-13.6,13.6h-28.9V60.7C306.8,53.1,312.9,47.1,320.4,47.1"/>
	<path class="st0" d="M422.4,61.7h28.9c7.5,0,13.6,6.1,13.6,13.6v77.6c0,7.5-6.1,13.6-13.6,13.6h-28.9V61.7z"/>
</g>
</svg>
