<?xml version="1.0" encoding="utf-8"?>
<!-- Generator: Adobe Illustrator 23.0.0, SVG Export Plug-In . SVG Version: 6.00 Build 0)  -->
<svg version="1.1" id="Layer_1" xmlns="http://www.w3.org/2000/svg" xmlns:xlink="http://www.w3.org/1999/xlink" x="0px" y="0px"
	 viewBox="0 0 282 163" style="enable-background:new 0 0 282 163;" xml:space="preserve">
<style type="text/css">
	.st0{fill:#16120B;}
</style>
<title>logo conf</title>
<desc>Created with Sketch.</desc>
<path class="st0" d="M76.5,138.4c0.4,0.5,0.5,1,0.2,1.5c-0.2,0.5-0.6,0.9-1.1,1.1c-1.4,0.7-3,1.2-4.7,1.7c-1.8,0.5-3.8,0.7-6.2,0.7
	c-2.9,0-5.7-0.6-8.4-1.9c-2.7-1.3-5.1-3-7.1-5.1c-2.1-2.1-3.7-4.7-4.9-7.6c-1.2-2.9-1.8-6-1.8-9.3v-0.1v-0.1c0-3.3,0.6-6.4,1.8-9.3
	c1.2-2.9,2.9-5.4,4.9-7.6c2-2.1,4.4-3.9,7.1-5.1c2.7-1.3,5.5-1.9,8.4-1.9c3.7,0,7.3,0.8,10.9,2.5c0.3,0.3,0.6,0.5,0.9,0.8
	c0.3,0.3,0.3,0.7,0.1,1.3l-3.6,6.5c-0.3,0.5-0.8,0.9-1.3,1.1c-0.6,0.2-1.1,0.2-1.6-0.1c-1.6-0.7-3.4-1-5.5-1c-1.6,0-3.1,0.3-4.5,1
	c-1.4,0.7-2.6,1.6-3.6,2.7c-1,1.2-1.8,2.5-2.4,4.1c-0.6,1.6-0.9,3.2-0.9,5c0,1.8,0.3,3.5,0.9,5.1c0.6,1.6,1.4,2.9,2.4,4.1
	c1,1.1,2.2,2,3.6,2.7c1.4,0.7,2.9,1,4.5,1c2,0,3.9-0.3,5.5-1c0.5-0.3,1.1-0.4,1.6-0.1c0.6,0.2,1,0.6,1.3,1.1L76.5,138.4z"/>
<path class="st0" d="M97.7,74.1c0.5,0.5,0.7,1.2,0.7,1.9v64.5c0,0.7-0.2,1.2-0.7,1.7c-0.5,0.5-1.1,0.7-1.8,0.7H89
	c-0.6,0-1.1-0.2-1.6-0.7c-0.5-0.5-0.7-1-0.7-1.7V76c0-0.7,0.2-1.4,0.7-1.9c0.5-0.5,1-0.8,1.6-0.8h6.8C96.6,73.3,97.2,73.5,97.7,74.1
	"/>
<path class="st0" d="M149.2,104.6c1.7,2.1,2.9,4.4,3.9,7c0.9,2.5,1.4,5.2,1.4,8c0,3.3-0.6,6.4-1.9,9.3c-1.3,2.9-3,5.4-5.2,7.6
	c-2.2,2.2-4.7,3.9-7.7,5.1c-2.9,1.3-6.1,1.9-9.5,1.9c-2.9,0-5.7-0.6-8.4-1.9c-2.7-1.3-5.1-3-7.1-5.1c-2.1-2.1-3.7-4.7-4.9-7.6
	c-1.2-2.9-1.8-6-1.8-9.3c0-4.6,1-8.6,3.1-12.2c2.1-3.6,4.8-6.4,8-8.4c3.3-2,6.9-3.1,11-3.3c4-0.2,8,0.8,11.9,2.9
	c0.7,0.3,0.8,0.8,0.5,1.3l-3.8,6.8c-0.3,0.5-0.8,0.9-1.3,1.1c-0.6,0.2-1.1,0.2-1.6-0.1c-1.6-0.7-3.4-1-5.5-1c-1.7,0-3.2,0.3-4.6,1
	c-1.4,0.7-2.6,1.6-3.6,2.7c-1,1.2-1.8,2.5-2.4,4.1c-0.6,1.6-0.8,3.3-0.8,5.1c0,3.7,1.1,6.8,3.2,9.2c2.1,2.4,4.9,3.6,8.2,3.6
	c1.9,0,3.6-0.3,5.2-0.9c1.6-0.6,3-1.5,4.2-2.7c1.2-1.2,2.1-2.5,2.8-4.1c0.7-1.6,1-3.3,1-5.1c0-1.2-0.2-2.4-0.5-3.5
	c-0.4-1.2-0.8-2.2-1.3-3.1c-0.5-1.1-0.3-2.1,0.7-2.9l6-5.4C148.7,104.4,149,104.4,149.2,104.6"/>
<path class="st0" d="M180.1,113.8c2.8,0.5,5.4,1,7.7,1.6c2.4,0.6,4.4,1.4,6.2,2.5c1.8,1.1,3.1,2.4,4.1,4.1c1,1.7,1.5,3.7,1.5,6.2
	c0,2.2-0.5,4.2-1.4,6.1c-1,1.9-2.3,3.5-4.1,4.8c-1.8,1.3-3.9,2.4-6.3,3.1c-2.4,0.8-5.2,1.1-8.1,1.1c-2.2,0-4.3-0.3-6.3-0.8
	c-2-0.6-3.9-1.4-5.6-2.5c-1.7-1.1-3.1-2.4-4.4-4c-1.2-1.6-2.2-3.4-2.8-5.4c-0.4-0.7-0.3-1.5,0.3-2.2c0.4-0.6,1-0.9,1.9-0.9h7
	c0.8,0,1.5,0.3,2,0.9c1.1,1.7,2.4,2.8,4,3.4c1.5,0.6,3,0.9,4.5,0.9c2.3,0,4.2-0.3,5.6-1c1.4-0.7,2.1-1.6,2.1-2.9
	c0-0.7-0.1-1.2-0.4-1.7c-0.3-0.5-0.7-0.9-1.4-1.3c-0.7-0.4-1.7-0.7-2.9-1c-1.3-0.3-2.8-0.6-4.8-0.9c-1.7-0.3-3.5-0.6-5.6-1.1
	c-2.1-0.5-4-1.2-5.8-2.2c-1.8-1-3.3-2.3-4.5-3.9c-1.2-1.6-1.8-3.7-1.8-6.2c0-1.8,0.4-3.6,1.2-5.3c0.8-1.8,2-3.3,3.5-4.7
	c1.5-1.4,3.4-2.5,5.6-3.4c2.2-0.9,4.8-1.3,7.7-1.3c4.6,0,8.5,1,11.7,3c3.2,2,5.6,4.7,7,8.2c0.2,0.8,0.1,1.5-0.4,2.1
	c-0.1,0.3-0.4,0.6-0.8,0.8c-0.4,0.2-0.8,0.3-1.2,0.3h-7.1c-0.4,0-0.8-0.1-1.1-0.3c-0.4-0.2-0.7-0.5-1-0.8c-0.5-0.8-1.5-1.4-2.8-1.9
	c-1.3-0.5-2.7-0.8-4.3-0.8c-1.3-0.1-2.4,0-3.2,0.2c-0.8,0.2-1.4,0.5-1.8,0.9c-0.4,0.4-0.7,0.8-0.8,1.3c-0.1,0.5-0.2,0.9-0.2,1.3
	c0,1.1,0.5,1.9,1.4,2.4C175.3,112.6,177.2,113.2,180.1,113.8"/>
<path class="st0" d="M225.5,113.8c2.8,0.5,5.4,1,7.7,1.6c2.4,0.6,4.4,1.4,6.2,2.5c1.8,1.1,3.1,2.4,4.1,4.1c1,1.7,1.5,3.7,1.5,6.2
	c0,2.2-0.5,4.2-1.4,6.1c-1,1.9-2.3,3.5-4.1,4.8c-1.8,1.3-3.9,2.4-6.3,3.1c-2.4,0.8-5.2,1.1-8.1,1.1c-2.2,0-4.3-0.3-6.3-0.8
	c-2-0.6-3.9-1.4-5.6-2.5c-1.7-1.1-3.1-2.4-4.4-4c-1.2-1.6-2.2-3.4-2.8-5.4c-0.4-0.7-0.3-1.5,0.3-2.2c0.4-0.6,1-0.9,1.9-0.9h7
	c0.8,0,1.5,0.3,2,0.9c1.1,1.7,2.4,2.8,4,3.4c1.5,0.6,3,0.9,4.5,0.9c2.3,0,4.2-0.3,5.6-1c1.4-0.7,2.1-1.6,2.1-2.9
	c0-0.7-0.1-1.2-0.4-1.7c-0.3-0.5-0.7-0.9-1.4-1.3c-0.7-0.4-1.7-0.7-2.9-1c-1.3-0.3-2.8-0.6-4.8-0.9c-1.7-0.3-3.5-0.6-5.6-1.1
	c-2-0.5-4-1.2-5.8-2.2c-1.8-1-3.3-2.3-4.5-3.9c-1.2-1.6-1.8-3.7-1.8-6.2c0-1.8,0.4-3.6,1.2-5.3c0.8-1.8,2-3.3,3.5-4.7
	c1.5-1.4,3.4-2.5,5.6-3.4c2.2-0.9,4.8-1.3,7.7-1.3c4.6,0,8.5,1,11.7,3c3.2,2,5.6,4.7,7,8.2c0.2,0.8,0.1,1.5-0.4,2.1
	c-0.1,0.3-0.4,0.6-0.8,0.8c-0.4,0.2-0.8,0.3-1.2,0.3h-7.1c-0.4,0-0.8-0.1-1.1-0.3c-0.4-0.2-0.7-0.5-1-0.8c-0.5-0.8-1.5-1.4-2.8-1.9
	c-1.3-0.5-2.7-0.8-4.3-0.8c-1.3-0.1-2.4,0-3.2,0.2c-0.8,0.2-1.4,0.5-1.8,0.9c-0.4,0.4-0.7,0.8-0.8,1.3c-0.1,0.5-0.2,0.9-0.2,1.3
	c0,1.1,0.5,1.9,1.4,2.4C220.7,112.6,222.6,113.2,225.5,113.8"/>
<path class="st0" d="M116.8,17h9.8c2.6,0,4.6,2.1,4.6,4.6v36h-9.8c-2.6,0-4.6-2.1-4.6-4.6V17z"/>
<path class="st0" d="M156.2,12h9.8c2.6,0,4.6,2.1,4.6,4.6v36h-9.8c-2.6,0-4.6-2.1-4.6-4.6V12z"/>
<path class="st0" d="M101.8,17h9.8v31c0,2.6-2.1,4.6-4.6,4.6h-9.8v-31C97.2,19.1,99.2,17,101.8,17"/>
<path class="st0" d="M141.1,12h9.8v41c0,2.6-2.1,4.6-4.6,4.6h-9.8v-41C136.5,14.1,138.6,12,141.1,12"/>
<path class="st0" d="M175.8,17h9.8c2.6,0,4.6,2.1,4.6,4.6V48c0,2.6-2.1,4.6-4.6,4.6h-9.8V17z"/>
</svg>
