<?xml version="1.0" encoding="utf-8"?>
<!-- Generator: Adobe Illustrator 23.0.0, SVG Export Plug-In . SVG Version: 6.00 Build 0)  -->
<svg version="1.1" id="Layer_1" xmlns="http://www.w3.org/2000/svg" xmlns:xlink="http://www.w3.org/1999/xlink" x="0px" y="0px"
	 viewBox="0 0 184 66" style="enable-background:new 0 0 184 66;" xml:space="preserve">
<style type="text/css">
	.st0{fill:#16120B;}
</style>
<title>Group 69</title>
<desc>Created with Sketch.</desc>
<path class="st0" d="M86.6,56.5c0.2,0.3,0.2,0.5,0.1,0.8c-0.1,0.3-0.3,0.5-0.6,0.6c-0.7,0.3-1.5,0.6-2.4,0.9c-0.9,0.3-2,0.4-3.2,0.4
	c-1.5,0-3-0.3-4.4-1c-1.4-0.7-2.6-1.5-3.7-2.7c-1.1-1.1-1.9-2.4-2.5-3.9c-0.6-1.5-1-3.1-1-4.8v-0.1v-0.1c0-1.7,0.3-3.3,1-4.8
	c0.6-1.5,1.5-2.8,2.5-3.9c1.1-1.1,2.3-2,3.7-2.7c1.4-0.7,2.9-1,4.4-1c1.9,0,3.8,0.4,5.7,1.3c0.2,0.1,0.3,0.3,0.5,0.4
	c0.2,0.2,0.2,0.4,0.1,0.7l-1.9,3.4c-0.2,0.3-0.4,0.5-0.7,0.6c-0.3,0.1-0.6,0.1-0.8-0.1c-0.8-0.3-1.8-0.5-2.8-0.5
	c-0.8,0-1.6,0.2-2.3,0.5c-0.7,0.3-1.3,0.8-1.9,1.4c-0.5,0.6-1,1.3-1.3,2.1c-0.3,0.8-0.5,1.7-0.5,2.6c0,0.9,0.2,1.8,0.5,2.6
	c0.3,0.8,0.7,1.5,1.3,2.1c0.5,0.6,1.2,1,1.9,1.4c0.7,0.3,1.5,0.5,2.3,0.5c1.1,0,2-0.2,2.8-0.5c0.3-0.2,0.6-0.2,0.8-0.1
	c0.3,0.1,0.5,0.3,0.7,0.6L86.6,56.5z"/>
<path class="st0" d="M97.6,23.2c0.2,0.3,0.4,0.6,0.4,1v33.5c0,0.3-0.1,0.6-0.4,0.9c-0.2,0.2-0.5,0.4-0.9,0.4h-3.6
	c-0.3,0-0.6-0.1-0.8-0.4c-0.2-0.2-0.4-0.5-0.4-0.9V24.2c0-0.4,0.1-0.7,0.4-1c0.2-0.3,0.5-0.4,0.8-0.4h3.6
	C97,22.8,97.3,22.9,97.6,23.2"/>
<path class="st0" d="M124.4,39c0.9,1.1,1.5,2.3,2,3.6c0.5,1.3,0.7,2.7,0.7,4.1c0,1.7-0.3,3.3-1,4.8c-0.7,1.5-1.5,2.8-2.7,3.9
	c-1.1,1.1-2.5,2-4,2.7c-1.5,0.7-3.2,1-4.9,1c-1.5,0-3-0.3-4.4-1c-1.4-0.7-2.6-1.5-3.7-2.7c-1.1-1.1-1.9-2.4-2.5-3.9
	c-0.6-1.5-1-3.1-1-4.8c0-2.4,0.5-4.5,1.6-6.3c1.1-1.9,2.5-3.3,4.2-4.4c1.7-1,3.6-1.6,5.7-1.7c2.1-0.1,4.2,0.4,6.2,1.5
	c0.3,0.2,0.4,0.4,0.3,0.7l-2,3.6c-0.2,0.3-0.4,0.5-0.7,0.6c-0.3,0.1-0.6,0.1-0.8-0.1c-0.8-0.3-1.8-0.5-2.8-0.5
	c-0.9,0-1.6,0.2-2.4,0.5c-0.7,0.3-1.3,0.8-1.9,1.4c-0.5,0.6-0.9,1.3-1.2,2.1c-0.3,0.8-0.4,1.7-0.4,2.6c0,1.9,0.6,3.5,1.7,4.8
	c1.1,1.3,2.5,1.9,4.2,1.9c1,0,1.9-0.2,2.7-0.5c0.8-0.3,1.6-0.8,2.2-1.4c0.6-0.6,1.1-1.3,1.5-2.1c0.4-0.8,0.5-1.7,0.5-2.7
	c0-0.6-0.1-1.2-0.3-1.8c-0.2-0.6-0.4-1.1-0.7-1.6c-0.3-0.6-0.2-1.1,0.4-1.5l3.1-2.8C124.1,38.9,124.2,38.9,124.4,39"/>
<path class="st0" d="M140.4,43.8c1.4,0.2,2.8,0.5,4,0.8c1.2,0.3,2.3,0.7,3.2,1.3c0.9,0.5,1.6,1.3,2.1,2.1c0.5,0.9,0.8,1.9,0.8,3.2
	c0,1.1-0.2,2.2-0.7,3.2c-0.5,1-1.2,1.8-2.1,2.5c-0.9,0.7-2,1.2-3.3,1.6c-1.3,0.4-2.7,0.6-4.2,0.6c-1.1,0-2.2-0.1-3.3-0.4
	c-1-0.3-2-0.7-2.9-1.3c-0.9-0.6-1.6-1.3-2.3-2.1c-0.6-0.8-1.1-1.8-1.5-2.8c-0.2-0.4-0.2-0.8,0.2-1.1c0.2-0.3,0.5-0.5,1-0.5h3.7
	c0.4,0,0.8,0.2,1,0.5c0.6,0.9,1.3,1.4,2.1,1.8c0.8,0.3,1.6,0.5,2.3,0.5c1.2,0,2.2-0.2,2.9-0.5c0.7-0.3,1.1-0.8,1.1-1.5
	c0-0.3-0.1-0.6-0.2-0.9c-0.1-0.3-0.4-0.5-0.7-0.7c-0.4-0.2-0.9-0.4-1.5-0.5c-0.7-0.2-1.5-0.3-2.5-0.5c-0.9-0.1-1.8-0.3-2.9-0.6
	c-1.1-0.3-2.1-0.6-3-1.2c-0.9-0.5-1.7-1.2-2.3-2c-0.6-0.8-0.9-1.9-0.9-3.2c0-0.9,0.2-1.8,0.6-2.8c0.4-0.9,1-1.7,1.8-2.4
	c0.8-0.7,1.8-1.3,2.9-1.8c1.1-0.4,2.5-0.7,4-0.7c2.4,0,4.4,0.5,6.1,1.6c1.7,1,2.9,2.5,3.7,4.2c0.1,0.4,0,0.8-0.2,1.1
	c-0.1,0.2-0.2,0.3-0.4,0.4c-0.2,0.1-0.4,0.2-0.6,0.2h-3.7c-0.2,0-0.4-0.1-0.6-0.2c-0.2-0.1-0.4-0.2-0.5-0.4c-0.3-0.4-0.8-0.7-1.4-1
	c-0.7-0.3-1.4-0.4-2.2-0.4c-0.7,0-1.2,0-1.6,0.1c-0.4,0.1-0.7,0.3-1,0.5c-0.2,0.2-0.4,0.4-0.4,0.7c-0.1,0.3-0.1,0.5-0.1,0.7
	c0,0.6,0.2,1,0.7,1.2C137.9,43.2,138.9,43.5,140.4,43.8"/>
<path class="st0" d="M164,43.8c1.4,0.2,2.8,0.5,4,0.8s2.3,0.7,3.2,1.3c0.9,0.5,1.6,1.3,2.1,2.1c0.5,0.9,0.8,1.9,0.8,3.2
	c0,1.1-0.2,2.2-0.7,3.2c-0.5,1-1.2,1.8-2.1,2.5c-0.9,0.7-2,1.2-3.3,1.6c-1.3,0.4-2.7,0.6-4.2,0.6c-1.1,0-2.2-0.1-3.3-0.4
	c-1-0.3-2-0.7-2.9-1.3c-0.9-0.6-1.6-1.3-2.3-2.1c-0.6-0.8-1.1-1.8-1.5-2.8c-0.2-0.4-0.2-0.8,0.2-1.1c0.2-0.3,0.5-0.5,1-0.5h3.7
	c0.4,0,0.8,0.2,1,0.5c0.6,0.9,1.3,1.4,2.1,1.8c0.8,0.3,1.6,0.5,2.3,0.5c1.2,0,2.2-0.2,2.9-0.5c0.7-0.3,1.1-0.8,1.1-1.5
	c0-0.3-0.1-0.6-0.2-0.9c-0.1-0.3-0.4-0.5-0.7-0.7c-0.4-0.2-0.9-0.4-1.5-0.5c-0.7-0.2-1.5-0.3-2.5-0.5c-0.9-0.1-1.8-0.3-2.9-0.6
	c-1.1-0.3-2.1-0.6-3-1.2c-0.9-0.5-1.7-1.2-2.3-2c-0.6-0.8-0.9-1.9-0.9-3.2c0-0.9,0.2-1.8,0.6-2.8c0.4-0.9,1-1.7,1.8-2.4
	c0.8-0.7,1.8-1.3,2.9-1.8c1.1-0.4,2.5-0.7,4-0.7c2.4,0,4.4,0.5,6.1,1.6c1.7,1,2.9,2.5,3.7,4.2c0.1,0.4,0,0.8-0.2,1.1
	c-0.1,0.2-0.2,0.3-0.4,0.4c-0.2,0.1-0.4,0.2-0.6,0.2h-3.7c-0.2,0-0.4-0.1-0.6-0.2c-0.2-0.1-0.4-0.2-0.5-0.4c-0.3-0.4-0.8-0.7-1.4-1
	c-0.7-0.3-1.4-0.4-2.2-0.4c-0.7,0-1.2,0-1.6,0.1c-0.4,0.1-0.7,0.3-1,0.5c-0.2,0.2-0.4,0.4-0.4,0.7c-0.1,0.3-0.1,0.5-0.1,0.7
	c0,0.6,0.2,1,0.7,1.2C161.4,43.2,162.5,43.5,164,43.8"/>
<path class="st0" d="M23.4,10.1h7c1.8,0,3.3,1.3,3.3,2.9v22.4h-7c-1.8,0-3.3-1.3-3.3-2.9V10.1z"/>
<path class="st0" d="M51.4,7h7c1.8,0,3.3,1.3,3.3,2.9v22.4h-7c-1.8,0-3.3-1.3-3.3-2.9V7z"/>
<path class="st0" d="M12.6,10.1h7v19.3c0,1.6-1.5,2.9-3.3,2.9h-7V13C9.3,11.4,10.8,10.1,12.6,10.1"/>
<path class="st0" d="M40.7,7h7v25.5c0,1.6-1.5,2.9-3.3,2.9h-7V9.9C37.4,8.3,38.9,7,40.7,7"/>
<path class="st0" d="M65.5,10.1h7c1.8,0,3.3,1.3,3.3,2.9v16.4c0,1.6-1.5,2.9-3.3,2.9h-7V10.1z"/>
</svg>
